<svg xmlns="http://www.w3.org/2000/svg" xmlns:xlink="http://www.w3.org/1999/xlink" width="50" zoomAndPan="magnify" viewBox="0 0 37.5 37.499999" height="50" preserveAspectRatio="xMidYMid meet" version="1.0"><defs><clipPath id="f27f667a64"><path d="M 1.597656 0 L 35.640625 0 L 35.640625 37.007812 L 1.597656 37.007812 Z M 1.597656 0 " clip-rule="nonzero"/></clipPath></defs><g clip-path="url(#f27f667a64)"><path fill="#ffed66" d="M 18.539062 0 C 8.253906 0 1.609375 7.257812 1.609375 18.492188 C 1.609375 29.910156 8.09375 37.007812 18.539062 37.007812 C 28.9375 37.007812 35.398438 29.910156 35.398438 18.492188 C 35.398438 7.085938 28.9375 0 18.539062 0 Z M 18.539062 30.570312 C 12.519531 30.570312 8.847656 25.84375 8.847656 18.492188 C 8.847656 11.117188 12.609375 6.4375 18.539062 6.4375 C 24.445312 6.4375 28.15625 11.117188 28.15625 18.492188 C 28.15625 25.84375 24.464844 30.570312 18.539062 30.570312 Z M 18.539062 30.570312 " fill-opacity="1" fill-rule="nonzero"/></g></svg>