<svg xmlns="http://www.w3.org/2000/svg" xmlns:xlink="http://www.w3.org/1999/xlink" width="50" zoomAndPan="magnify" viewBox="0 0 37.5 37.499999" height="50" preserveAspectRatio="xMidYMid meet" version="1.0"><defs><clipPath id="c0b205c204"><path d="M 0 0 L 37.007812 0 L 37.007812 37.007812 L 0 37.007812 Z M 0 0 " clip-rule="nonzero"/></clipPath><clipPath id="091be2f076"><path d="M 0 0 L 37.007812 0 L 37.007812 37 L 0 37 Z M 0 0 " clip-rule="nonzero"/></clipPath></defs><g clip-path="url(#c0b205c204)"><path fill="#ffffff" d="M 0 0 L 37.007812 0 L 37.007812 37.007812 L 0 37.007812 Z M 0 0 " fill-opacity="1" fill-rule="nonzero"/><path fill="#ffffff" d="M 0 0 L 37.007812 0 L 37.007812 37.007812 L 0 37.007812 Z M 0 0 " fill-opacity="1" fill-rule="nonzero"/></g><g clip-path="url(#091be2f076)"><path fill="#100f0d" d="M 34.269531 10.042969 L 33.882812 10.425781 L 26.609375 3.152344 L 26.992188 2.769531 C 27.964844 1.796875 29.257812 1.261719 30.632812 1.261719 C 33.46875 1.261719 35.773438 3.570312 35.773438 6.40625 C 35.773438 7.78125 35.242188 9.070312 34.269531 10.042969 Z M 11.316406 32.992188 L 11.316406 29.722656 L 28.871094 12.167969 L 30.507812 13.804688 Z M 2.332031 32.019531 C 2.914062 32.109375 3.53125 32.429688 4.046875 32.941406 C 4.570312 33.460938 4.921875 34.097656 5.03125 34.703125 L 1.503906 35.53125 Z M 10.449219 28.851562 L 8.183594 28.851562 L 8.183594 26.589844 L 25.742188 9.035156 L 28 11.296875 Z M 23.234375 6.53125 L 24.871094 8.164062 L 7.3125 25.71875 L 4.042969 25.71875 Z M 3.523438 26.949219 L 6.953125 26.949219 L 6.953125 29.464844 C 6.953125 29.808594 7.230469 30.082031 7.570312 30.082031 L 10.085938 30.082031 L 10.085938 33.511719 L 6.230469 34.421875 C 6.066406 33.585938 5.609375 32.753906 4.914062 32.066406 C 4.238281 31.394531 3.425781 30.957031 2.617188 30.804688 Z M 31.378906 12.933594 L 24.105469 5.660156 L 25.742188 4.023438 L 33.015625 11.296875 Z M 30.632812 0.03125 C 28.929688 0.03125 27.328125 0.695312 26.121094 1.898438 L 2.75 25.273438 C 2.667969 25.355469 2.609375 25.457031 2.585938 25.566406 L 0.078125 36.21875 C 0.03125 36.425781 0.0898438 36.644531 0.242188 36.796875 C 0.359375 36.910156 0.515625 36.976562 0.675781 36.976562 C 0.722656 36.976562 0.769531 36.972656 0.820312 36.957031 L 11.46875 34.453125 C 11.582031 34.425781 11.683594 34.371094 11.761719 34.289062 L 35.140625 10.914062 C 36.34375 9.710938 37.007812 8.109375 37.007812 6.40625 C 37.007812 2.890625 34.148438 0.03125 30.632812 0.03125 " fill-opacity="1" fill-rule="nonzero"/></g><path fill="#100f0d" d="M 33.492188 3.90625 C 33.25 4.144531 33.25 4.535156 33.492188 4.777344 C 34.269531 5.554688 34.269531 6.820312 33.492188 7.601562 C 33.25 7.839844 33.25 8.230469 33.492188 8.472656 C 33.613281 8.589844 33.769531 8.652344 33.929688 8.652344 C 34.085938 8.652344 34.242188 8.589844 34.363281 8.472656 C 35.621094 7.214844 35.621094 5.164062 34.363281 3.90625 C 34.121094 3.664062 33.734375 3.664062 33.492188 3.90625 " fill-opacity="1" fill-rule="nonzero"/></svg>